<svg width="46" height="46" viewBox="0 0 46 46" fill="none" xmlns="http://www.w3.org/2000/svg">
<path fill-rule="evenodd" clip-rule="evenodd" d="M42.7927 17.5342C42.0928 16.812 41.3686 16.0674 41.1326 15.4977C40.8711 14.867 40.8487 13.7846 40.8264 12.7369C40.7847 10.7288 40.7368 8.45423 39.1204 6.83684C37.505 5.22144 35.2294 5.17465 33.2224 5.13192C32.1746 5.11157 31.0923 5.08717 30.4636 4.82675C29.8919 4.59075 29.1463 3.86646 28.424 3.16659C27.0284 1.81161 25.2899 0.125 22.9166 0.125C20.5434 0.125 18.8049 1.81161 17.4092 3.16659C16.687 3.86646 15.9413 4.59073 15.3707 4.82675C14.741 5.08717 13.6586 5.11159 12.6119 5.13192C10.6038 5.17465 8.32823 5.22144 6.71286 6.83684C5.09644 8.45223 5.04863 10.7288 5.00692 12.7369C4.98455 13.7846 4.96217 14.867 4.70073 15.4977C4.46473 16.0674 3.74044 16.812 3.04057 17.5342C1.68559 18.9299 0 20.6674 0 23.0416C0 25.4159 1.68559 27.1534 3.04057 28.549C3.74044 29.2713 4.46471 30.0159 4.70073 30.5856C4.96217 31.2163 4.98455 32.2986 5.00692 33.3464C5.04863 35.3545 5.09644 37.629 6.71286 39.2465C8.32823 40.8619 10.6038 40.9087 12.6108 40.9514C13.6586 40.9717 14.741 40.9961 15.3696 41.2566C15.9413 41.4926 16.687 42.2168 17.4092 42.9167C18.8049 44.2717 20.5434 45.9583 22.9166 45.9583C25.2899 45.9583 27.0283 44.2717 28.424 42.9167C29.1463 42.2168 29.8919 41.4926 30.4626 41.2566C31.0923 40.9961 32.1746 40.9717 33.2214 40.9514C35.2295 40.9087 37.505 40.8619 39.1204 39.2465C40.7368 37.6311 40.7847 35.3545 40.8264 33.3464C40.8487 32.2986 40.8711 31.2163 41.1326 30.5856C41.3686 30.0159 42.0928 29.2713 42.7927 28.549C44.1477 27.1534 45.8333 25.4159 45.8333 23.0416C45.8333 20.6674 44.1477 18.9299 42.7927 17.5342ZM39.802 25.6478C38.8305 26.6488 37.8245 27.6844 37.2833 28.9905C36.7218 30.3455 36.6912 31.8266 36.6607 33.2589C36.6363 34.4206 36.6058 35.8692 36.1745 36.3005C35.7442 36.7298 34.2976 36.7603 33.1349 36.7847C31.7026 36.8152 30.2205 36.8458 28.8645 37.4073C27.5604 37.9505 26.5248 38.9555 25.5228 39.926C24.6216 40.8008 23.6013 41.7916 22.9166 41.7916C22.232 41.7916 21.2117 40.8008 20.3104 39.926C19.3084 38.9555 18.2729 37.9505 16.9667 37.4073C15.6117 36.8458 14.1306 36.8152 12.6973 36.7847C11.5356 36.7603 10.0891 36.7298 9.65883 36.3005C9.22643 35.8692 9.19693 34.4227 9.17253 33.2589C9.14203 31.8266 9.11153 30.3455 8.55003 28.9905C8.00883 27.6844 7.00273 26.6488 6.03127 25.6478C5.15746 24.7466 4.16665 23.7273 4.16665 23.0416C4.16665 22.356 5.15746 21.3367 6.03127 20.4354C7.00275 19.4345 8.00883 18.3989 8.55003 17.0927C9.11153 15.7378 9.14203 14.2566 9.17253 12.8243C9.19693 11.6626 9.22753 10.2141 9.65883 9.78283C10.0891 9.35353 11.5356 9.32303 12.6983 9.29863C14.1306 9.26803 15.6127 9.23753 16.9687 8.67603C18.2728 8.13283 19.3084 7.12777 20.3104 6.15732C21.2117 5.28248 22.232 4.29167 22.9166 4.29167C23.6012 4.29167 24.6215 5.28248 25.5228 6.15732C26.5248 7.12777 27.5604 8.13283 28.8665 8.67603C30.2215 9.23753 31.7026 9.26803 33.1359 9.29863C34.2976 9.32303 35.7442 9.35353 36.1745 9.78283C36.6068 10.2141 36.6363 11.6606 36.6607 12.8243C36.6912 14.2566 36.7218 15.7378 37.2833 17.0927C37.8245 18.3989 38.8305 19.4345 39.802 20.4354C40.6758 21.3367 41.6666 22.356 41.6666 23.0416C41.6666 23.7273 40.6758 24.7466 39.802 25.6478ZM14.5833 18.0586C14.5833 16.5101 15.6021 15.2808 17.361 15.2808C19.1201 15.2808 20.1389 16.5101 20.1389 18.0586C20.1389 19.6069 19.1201 20.8362 17.361 20.8362C15.6021 20.8362 14.5833 19.6069 14.5833 18.0586ZM31.25 28.046C31.25 29.5943 30.2312 30.8236 28.4722 30.8236C26.7131 30.8236 25.6944 29.5943 25.6944 28.046C25.6944 26.4973 26.7131 25.2679 28.4722 25.2679C30.2312 25.2679 31.25 26.4973 31.25 28.046ZM31.0072 14.7083L19.1033 31.375H14.826L26.7299 14.7083H31.0072Z" fill="black"/>
</svg>
