<svg width="38" height="46" viewBox="0 0 38 46" fill="none" xmlns="http://www.w3.org/2000/svg">
<path fill-rule="evenodd" clip-rule="evenodd" d="M19.6309 19.6752C21.5088 17.1728 23.6287 14.7771 25.9318 12.5565L28.8249 15.5553C26.6805 17.6234 24.709 19.8502 22.9634 22.1756C21.3521 24.324 19.9137 26.5874 18.6889 28.9007C18.3797 29.4856 17.8121 29.8884 17.157 29.9861C17.0532 30.0024 16.9515 30.0095 16.8477 30.0095C16.2984 30.0095 15.7674 29.7928 15.3747 29.3991L9.2387 23.2641L12.1846 20.3181L16.3798 24.5133C17.3706 22.8582 18.4591 21.2387 19.6309 19.6752ZM37.5 8.31454V26.5315C37.5 31.7836 34.7371 36.6796 30.2917 39.3092L30.2083 39.356L18.75 45.43L7.2917 39.356C2.76083 36.6786 0 31.7826 0 26.5315V8.31454L15.1245 0.889642C17.4296 -0.242568 20.0724 -0.240528 22.3816 0.891682L37.5 8.31454ZM33.3333 10.9106L20.5465 4.63212C19.4031 4.07264 18.0949 4.07264 16.9596 4.63008L4.1667 10.9106V26.5315C4.1667 30.3167 6.1442 33.8394 9.3282 35.7224L18.75 40.714L28.2105 35.699C31.3721 33.8099 33.3333 30.3025 33.3333 26.5315V10.9106Z" fill="black"/>
</svg>
