<svg width="46" height="44" viewBox="0 0 46 44" fill="none" xmlns="http://www.w3.org/2000/svg">
<path fill-rule="evenodd" clip-rule="evenodd" d="M28.6026 31.3322C28.9558 31.0358 29.2709 30.7062 29.6051 30.393L29.632 30.4248L42.9621 19.1394C45.6619 16.7367 46.5551 13.1783 45.2896 9.85388C44.0582 6.61461 41.0492 4.48346 37.53 4.25356V0.0415039H8.33077V4.25356C4.8136 4.48359 1.80456 6.61461 0.569102 9.85188C-0.700438 13.1743 0.184582 16.7306 2.91895 19.174L16.2308 30.4248L16.2567 30.394C16.5909 30.7069 16.9052 31.0362 17.2582 31.3322L20.847 34.3453V39.6249H14.597V43.7915H31.2637V39.6249H25.0137V34.3453L28.6026 31.3322ZM41.3955 11.3371C42.0405 13.0298 41.5909 14.7815 40.2298 15.992L36.5107 19.1402C37.1582 16.9026 37.53 14.572 37.53 12.1855V8.42298C39.6281 8.65698 40.9002 10.0308 41.3955 11.3371ZM4.4611 11.3371C4.96006 10.0308 6.23416 8.65728 8.33077 8.42318V12.1855C8.33077 14.5795 8.70457 16.9171 9.35617 19.161L5.65129 16.0307C4.25968 14.7856 3.81412 13.0318 4.4611 11.3371ZM19.9356 28.1421C15.2094 24.1748 12.4974 18.3582 12.4974 12.1855V4.20817H33.3633V12.1855C33.3633 18.3582 30.6513 24.1748 25.9252 28.1421L22.9304 30.6547L19.9356 28.1421Z" fill="black"/>
</svg>
