<svg width="23" height="18" viewBox="0 0 23 18" fill="none" xmlns="http://www.w3.org/2000/svg">
<path d="M22.3952 2.25008C21.5931 2.61466 20.7285 2.85425 19.8327 2.96883C20.7493 2.41675 21.4577 1.54175 21.791 0.489665C20.9264 1.0105 19.9681 1.37508 18.9577 1.58341C18.1348 0.687581 16.9785 0.166748 15.666 0.166748C13.2181 0.166748 11.2181 2.16675 11.2181 4.6355C11.2181 4.98966 11.2598 5.33342 11.3327 5.65633C7.62435 5.46883 4.32227 3.68758 2.12435 0.989665C1.73893 1.64591 1.52018 2.41675 1.52018 3.22925C1.52018 4.78133 2.30143 6.15633 3.50977 6.93758C2.77018 6.93758 2.08268 6.72925 1.47852 6.41675V6.448C1.47852 8.61466 3.02018 10.4272 5.06185 10.8334C4.40647 11.0136 3.71814 11.0385 3.05143 10.9063C3.33436 11.7943 3.88845 12.5713 4.63582 13.1281C5.3832 13.6849 6.28627 13.9935 7.2181 14.0105C5.63859 15.261 3.68061 15.937 1.66602 15.9272C1.31185 15.9272 0.957682 15.9063 0.603516 15.8647C2.58268 17.1355 4.93685 17.8751 7.45768 17.8751C15.666 17.8751 20.1764 11.0626 20.1764 5.15633C20.1764 4.95841 20.1764 4.77091 20.166 4.573C21.041 3.948 21.791 3.15633 22.3952 2.25008Z" fill="white"/>
</svg>
