<svg width="20" height="21" viewBox="0 0 20 21" fill="none" xmlns="http://www.w3.org/2000/svg">
<path d="M11.0286 0.083252C12.1536 0.086377 12.7246 0.092627 13.2176 0.10721L13.4116 0.114502C13.6356 0.122835 13.8566 0.133252 14.1236 0.145752C15.1876 0.197835 15.9136 0.372835 16.5506 0.630127C17.2106 0.89471 17.7666 1.25304 18.3226 1.83117C18.8313 2.35172 19.2248 2.98166 19.4756 3.677C19.7226 4.34054 19.8906 5.09679 19.9406 6.20617C19.9526 6.48325 19.9626 6.71346 19.9706 6.94783L19.9766 7.14992C19.9916 7.66242 19.9976 8.25721 19.9996 9.42908L20.0006 10.2062V11.5708C20.003 12.3305 19.9953 13.0903 19.9776 13.8499L19.9716 14.052C19.9636 14.2864 19.9536 14.5166 19.9416 14.7937C19.8916 15.903 19.7216 16.6583 19.4756 17.3228C19.2248 18.0182 18.8313 18.6481 18.3226 19.1687C17.8228 19.6986 17.2181 20.1084 16.5506 20.3697C15.9136 20.627 15.1876 20.802 14.1236 20.8541L13.4116 20.8853L13.2176 20.8916C12.7246 20.9062 12.1536 20.9135 11.0286 20.9155L10.2826 20.9166H8.97357C8.24383 20.9193 7.51409 20.9113 6.78457 20.8926L6.59057 20.8864C6.35318 20.877 6.11584 20.8662 5.87857 20.8541C4.81457 20.802 4.08857 20.627 3.45057 20.3697C2.7834 20.1083 2.17901 19.6984 1.67957 19.1687C1.17051 18.6482 0.776678 18.0183 0.525569 17.3228C0.278569 16.6593 0.110569 15.903 0.0605687 14.7937L0.0305688 14.052L0.0255689 13.8499C0.00713493 13.0904 -0.00119929 12.3306 0.000568797 11.5708V9.42908C-0.0021991 8.66929 0.00513501 7.9095 0.0225689 7.14992L0.0295688 6.94783C0.0375688 6.71346 0.0475688 6.48325 0.0595688 6.20617C0.109569 5.09679 0.277569 4.34159 0.524569 3.677C0.776263 2.98138 1.17079 2.35141 1.68057 1.83117C2.17972 1.30153 2.78376 0.891662 3.45057 0.630127C4.08857 0.372835 4.81357 0.197835 5.87857 0.145752C6.14457 0.133252 6.36657 0.122835 6.59057 0.114502L6.78457 0.108252C7.51376 0.0897444 8.24316 0.0817575 8.97257 0.0842935L11.0286 0.083252ZM10.0006 5.29158C8.67449 5.29158 7.40272 5.84032 6.46503 6.81707C5.52735 7.79382 5.00057 9.11858 5.00057 10.4999C5.00057 11.8813 5.52735 13.206 6.46503 14.1828C7.40272 15.1595 8.67449 15.7083 10.0006 15.7083C11.3267 15.7083 12.5984 15.1595 13.5361 14.1828C14.4738 13.206 15.0006 11.8813 15.0006 10.4999C15.0006 9.11858 14.4738 7.79382 13.5361 6.81707C12.5984 5.84032 11.3267 5.29158 10.0006 5.29158ZM10.0006 7.37492C10.3945 7.37485 10.7847 7.45561 11.1487 7.6126C11.5127 7.76958 11.8434 7.99971 12.122 8.28984C12.4007 8.57998 12.6217 8.92444 12.7725 9.30355C12.9233 9.68267 13.001 10.089 13.0011 10.4994C13.0011 10.9098 12.9236 11.3162 12.7729 11.6953C12.6222 12.0745 12.4013 12.419 12.1227 12.7093C11.8442 12.9995 11.5135 13.2297 11.1496 13.3868C10.7856 13.544 10.3955 13.6248 10.0016 13.6249C9.20592 13.6249 8.44286 13.2957 7.88025 12.7096C7.31764 12.1236 7.00157 11.3287 7.00157 10.4999C7.00157 9.67112 7.31764 8.87626 7.88025 8.29021C8.44286 7.70416 9.20592 7.37492 10.0016 7.37492M15.2516 3.72909C14.92 3.72909 14.6021 3.86627 14.3677 4.11046C14.1333 4.35464 14.0016 4.68583 14.0016 5.03117C14.0016 5.3765 14.1333 5.70769 14.3677 5.95188C14.6021 6.19607 14.92 6.33325 15.2516 6.33325C15.5831 6.33325 15.901 6.19607 16.1355 5.95188C16.3699 5.70769 16.5016 5.3765 16.5016 5.03117C16.5016 4.68583 16.3699 4.35464 16.1355 4.11046C15.901 3.86627 15.5831 3.72909 15.2516 3.72909Z" fill="white"/>
</svg>
