<svg width="25" height="30" viewBox="0 0 25 30" fill="none" xmlns="http://www.w3.org/2000/svg">
<path d="M24.2663 0H0.516318C0.231061 0 1.44958e-05 0.223751 1.44958e-05 0.500001V26.9999C1.44958e-05 27.2762 0.231061 27.4999 0.516318 27.4999C0.801575 27.4999 1.03262 27.2762 1.03262 26.9999V0.999842H23.75V26.5999C23.75 27.9237 22.6386 28.9999 21.2717 28.9999H21.0652C19.6983 28.9999 18.5869 27.9237 18.5869 26.5999V25.1499C18.5869 24.9949 18.5134 24.8499 18.3869 24.7549C18.2604 24.6599 18.0965 24.6274 17.9415 24.6662L0.387227 29.0162C0.37432 29.02 0.365285 29.0287 0.352377 29.0325C0.318818 29.0437 0.287839 29.0587 0.25815 29.0762C0.229753 29.0925 0.202647 29.1075 0.179414 29.1275C0.154889 29.1488 0.134237 29.1725 0.114877 29.1988C0.0942248 29.2238 0.0748644 29.2488 0.0606657 29.2775C0.0464672 29.305 0.0374321 29.3338 0.028397 29.365C0.0180709 29.3975 0.0103262 29.43 0.00774487 29.4637C0.00645386 29.4762 0 29.4875 0 29.5C0 29.5212 0.0103262 29.54 0.0129076 29.5613C0.0154893 29.5825 0.0103262 29.6025 0.0167799 29.6238C0.0206522 29.6375 0.0296875 29.6488 0.0348505 29.6625C0.0438856 29.6863 0.0529209 29.7063 0.0658287 29.7288C0.0838992 29.7625 0.104552 29.7925 0.130366 29.8212C0.145855 29.8387 0.160053 29.855 0.178123 29.87C0.209102 29.8962 0.242661 29.9175 0.280092 29.9362C0.298163 29.9462 0.314943 29.9562 0.334303 29.9637C0.392387 29.9862 0.454344 30 0.518881 30H0.521463H21.2717C23.2079 30 24.7826 28.475 24.7826 26.6V0.500087C24.7826 0.223837 24.5515 0 24.2663 0Z" fill="white"/>
<path d="M3.62664 7.39501L2.07773 14.395C2.04546 14.5425 2.08289 14.6963 2.18099 14.8138C2.27909 14.9313 2.42623 15 2.5824 15H11.8759C12.032 15 12.1792 14.9325 12.2773 14.815C12.3754 14.6975 12.4128 14.5438 12.3805 14.3963L10.8316 7.39626C10.7813 7.165 10.5709 7 10.327 7H4.13131C3.88736 7 3.67696 7.165 3.62664 7.39501ZM9.91017 8L11.2384 14H3.22136L4.54954 8H9.91017Z" fill="white"/>
<path d="M9.29323 6.00001C9.57849 6.00001 9.80954 5.77626 9.80954 5.50001V5.43501C9.80954 4.09251 8.6814 3 7.29513 3H7.16089C5.77462 3 4.64648 4.09251 4.64648 5.43501V5.50001C4.64648 5.77626 4.87753 6.00001 5.16279 6.00001C5.44805 6.00001 5.67909 5.77626 5.67909 5.50001V5.43501C5.67909 4.64375 6.34383 4 7.16089 4H7.29513C8.11219 4 8.77693 4.64375 8.77693 5.43501V5.50001C8.77693 5.77626 9.00798 6.00001 9.29323 6.00001Z" fill="white"/>
<path d="M6.38858 12.3901C6.4828 12.4626 6.59768 12.5001 6.71127 12.5001C6.82485 12.5001 6.93973 12.4639 7.03396 12.3901L9.61547 10.3901C9.83749 10.2176 9.87363 9.90265 9.6955 9.68764C9.51738 9.47264 9.19341 9.43639 8.9701 9.61014L6.71128 11.3602L5.48507 10.4101C5.26177 10.2376 4.93781 10.2726 4.75967 10.4876C4.58155 10.7026 4.61769 11.0176 4.8397 11.1901L6.38858 12.3901Z" fill="white"/>
<path d="M15.0877 7.99998H15.1019C15.2452 7.99998 15.3807 7.94248 15.4788 7.84248L17.4149 5.84247C17.6098 5.64122 17.5995 5.32497 17.3917 5.13623C17.1839 4.94748 16.8573 4.95748 16.6624 5.15873L15.1225 6.74875L14.3352 5.845C14.1506 5.635 13.8253 5.60625 13.6072 5.785C13.3891 5.9625 13.3619 6.27876 13.5452 6.49L14.7069 7.82376C14.8024 7.93126 14.9406 7.99623 15.0877 7.99998Z" fill="white"/>
<path d="M19.1022 7H22.2001C22.4853 7 22.7164 6.77625 22.7164 6.5C22.7164 6.22375 22.4853 6 22.2001 6H19.1022C18.817 6 18.5859 6.22375 18.5859 6.5C18.5859 6.77625 18.817 7 19.1022 7Z" fill="white"/>
<path d="M19.1022 16H22.2001C22.4853 16 22.7164 15.7763 22.7164 15.5C22.7164 15.2238 22.4853 15 22.2001 15H19.1022C18.817 15 18.5859 15.2238 18.5859 15.5C18.5859 15.7763 18.817 16 19.1022 16Z" fill="white"/>
<path d="M13.5452 10.9887L14.7069 12.3225C14.8024 12.4312 14.9406 12.4962 15.0877 12.5H15.1019C15.2452 12.5 15.3807 12.4425 15.4788 12.3425L17.4149 10.3425C17.6098 10.1412 17.5995 9.82497 17.3917 9.63623C17.1839 9.44623 16.8573 9.45748 16.6624 9.65873L15.1225 11.2488L14.3352 10.345C14.1506 10.1338 13.8253 10.1063 13.6072 10.285C13.3891 10.4625 13.362 10.7775 13.5452 10.9887Z" fill="white"/>
<path d="M19.1022 11.4998H22.2001C22.4853 11.4998 22.7164 11.276 22.7164 10.9998C22.7164 10.7235 22.4853 10.4998 22.2001 10.4998H19.1022C18.817 10.4998 18.5859 10.7235 18.5859 10.9998C18.5859 11.276 18.817 11.4998 19.1022 11.4998Z" fill="white"/>
<path d="M19.1022 20.5002H22.2001C22.4853 20.5002 22.7164 20.2765 22.7164 20.0002C22.7164 19.724 22.4853 19.5002 22.2001 19.5002H19.1022C18.817 19.5002 18.5859 19.724 18.5859 20.0002C18.5859 20.2765 18.817 20.5002 19.1022 20.5002Z" fill="white"/>
<path d="M13.4238 17C13.4238 17.2763 13.6549 17.5 13.9401 17.5H17.038C17.3232 17.5 17.5543 17.2763 17.5543 17V14C17.5543 13.7238 17.3232 13.5 17.038 13.5H13.9401C13.6549 13.5 13.4238 13.7238 13.4238 14V17ZM14.4564 14.5H16.5216V16.5H14.4564V14.5Z" fill="white"/>
<path d="M16.8862 18.6465C16.6849 18.4515 16.3583 18.4515 16.1557 18.6465L15.4883 19.2927L14.821 18.6465C14.6197 18.4515 14.2931 18.4515 14.0905 18.6465C13.8891 18.8415 13.8891 19.1578 14.0905 19.354L14.7578 20.0002L14.0905 20.6465C13.8891 20.8415 13.8891 21.1577 14.0905 21.354C14.1912 21.4515 14.3241 21.5002 14.4558 21.5002C14.5874 21.5002 14.7204 21.4515 14.8211 21.354L15.4884 20.7077L16.1557 21.354C16.2564 21.4515 16.3893 21.5002 16.521 21.5002C16.6527 21.5002 16.7856 21.4515 16.8863 21.354C17.0876 21.159 17.0876 20.8427 16.8863 20.6465L16.219 20.0002L16.8863 19.354C17.0876 19.1577 17.0876 18.8415 16.8862 18.6465Z" fill="white"/>
<path d="M3.09833 20.5002C2.81308 20.5002 2.58203 20.724 2.58203 21.0002V24.0003C2.58203 24.2765 2.81308 24.5003 3.09833 24.5003H9.29398C9.57924 24.5003 9.81028 24.2765 9.81028 24.0003V21.0002C9.81028 20.724 9.57924 20.5002 9.29398 20.5002H3.09833ZM8.77784 23.5003H3.6148V21.5002H8.77784V23.5003Z" fill="white"/>
<path d="M4.64716 23H6.71238C6.99763 23 7.22868 22.7763 7.22868 22.5C7.22868 22.2238 6.99763 22 6.71238 22H4.64716C4.36191 22 4.13086 22.2238 4.13086 22.5C4.13086 22.7763 4.36191 23 4.64716 23Z" fill="white"/>
</svg>
